# xmcd CD database file
#
# Track frame offsets:
#	150
#	12150
#	23100
#	37620
#	49920
#	62377
#	78562
#	88642
#	99120
#	110527
#	124275
#	133235
#	146967
#	161895
#	180930
#
# Disc length: 2635 seconds
#
# Revision: 4
# Processed by: cddbd v1.5.2PL0 Copyright (c) Steve Scherf et al.
# Submitted via: CDex 1.51
#
DISCID=bf0a490f
DTITLE=Various Artist - Treasury of Bluegrass Vol. 2 Disk 2
DYEAR=2001
DGENRE=Bluegrass
TTITLE0=Lester Flatt and Earl Scruggs - Roll in My Sweet Baby's Arms
TTITLE1=Jim And Jesse - Are You Missing Me
TTITLE2=Bill Monroe - In the Pines
TTITLE3=The Osborne Brothers - Once More
TTITLE4=Mac Wiseman - Love Letters in the Sand
TTITLE5=Ralph Stanley - Pretty Polly
TTITLE6=Lester Flatt and Earl Scruggs - Don't Let Your Deal Go Down
TTITLE7=The Stanley Brothers - Angel Band
TTITLE8=Bill Monroe - Lonesome Road Blues
TTITLE9=The Country Gentlemen - Bringing Mary Home
TTITLE10=The Stonemen - Shady Grove
TTITLE11=The Seldom Scene - Muddy Water
TTITLE12=Johnson Mountain Boys - Duncan and Brady (He's Been on the Job Too Long)
TTITLE13=Lynn Morris - Mama's Hand
TTITLE14=Del McCoury Band - Get Down On Your Knees and Pray
EXTD=YEAR: 2001
EXTT0=
EXTT1=
EXTT2=
EXTT3=
EXTT4=
EXTT5=
EXTT6=
EXTT7=
EXTT8=
EXTT9=
EXTT10=
EXTT11=
EXTT12=
EXTT13=
EXTT14=
PLAYORDER=
